/* XPM */
static char *f67a17fbd30b470afff222884ea3c2502I1Q7wAQD8xrnBM1[] = {
/* columns rows colors chars-per-pixel */
"64 64 6 1 ",
"  c black",
". c #FBF236",
"X c #80FF49",
"o c #FFF981",
"O c #FFFBAF",
"+ c white",
/* pixels */
"                                                                ",
"                                                                ",
"                                                                ",
"                                                                ",
"                                                                ",
"                                    .                           ",
"        +                                                       ",
"                                                                ",
"                                                          .     ",
"                       O                   XXXXXXXX             ",
"                       O                  XXXXXXXXXX            ",
"                      OOO         XXXX   XXXXXXXXXXXX           ",
"                    OO++OOO+      XXXX   XXXXX   XXXXX          ",
"                      OOO        XXXX     XXX     XXXX          ",
"              XX       O        XXXXX     XX      XXXX          ",
"              XX       O        XXXX               XX           ",
"              XXX               XX                              ",
"               XX                                               ",
"               XX                           XXX    +            ",
"               XX      XX                  XXXXX                ",
"                       XXXX                XXXXX                ",
"  +                    XXXXX                XXXX                ",
"                         XXXX               XXXX                ",
"                           XX              XXXXX                ",
"                                  XX    . XXXXXX                ",
"            .    XXXX           XXXX      XXXXX                 ",
"                 XXXXX          XXXX       XX                   ",
"                  XXXX          XX                    XXX       ",
"     XXX          XXXXX                            XXXXXX       ",
"     XXX          XXXXX                           XXXXXX        ",
"      XXX                                        XXXXX          ",
"       XXX                                      XXXXX           ",
"        XX                               XX     XXXX            ",
"        XX                  XX           XXX    XXXX            ",
"        XX                  XXX          XXX    XXo             ",
"        XX                + XXXXXX       XXX oooXXoooo          ",
"                            XXXXXXX     XXXX   oXXoo            ",
"                         XXXXXXXXXX    XXXX     ooo             ",
"                         XXXXXXXX      XX        o              ",
"                            XXXX                 o              ",
"                             XXX                 o              ",
"              XXX             XX             XXXXXX             ",
"             XXXX                          XXXXXXXX             ",
"             XXXX                          XXXXXX               ",
"  +         XXXX                           XXXX     XX          ",
"            XX                     XXX             XXX     +    ",
"                                   XXXX            XXXX         ",
"                                    XXXX          XXXXX         ",
"                                    XXXX          XXXXX         ",
"                      XX XXXX       XXXXX        XXXXX          ",
"         +            XXXXXXXX       XXXX      XXXXXX           ",
"         +           XXXXXXXXX       XXX       XXXX             ",
"         +           XXX         .             XX               ",
"         +           XX                    +                    ",
"        +++                                                     ",
"      +++++++                                                   ",
"        +++                                                     ",
"         +                                                      ",
"         +                                                      ",
"                                                                ",
"                                                                ",
"                        +                             .         ",
"                                                                ",
"                                                                "
};
