/* XPM */
static char *Collectible1[] = {
/* columns rows colors chars-per-pixel */
"64 64 69 1 ",
"  c black",
". c #5DAA29",
"X c #5DAB29",
"o c #5EAB29",
"O c #5EAB2A",
"+ c #5EAC29",
"@ c #5FAE2A",
"# c #60AD2B",
"$ c #60AE2A",
"% c #60AF2B",
"& c #62AF2C",
"* c #62B22B",
"= c #62B22C",
"- c #63B32C",
"; c #65B22E",
": c #63B42C",
"> c #64B42C",
", c #64B52C",
"< c #65B72D",
"1 c #67B42F",
"2 c #66B82E",
"3 c #67B92E",
"4 c #67BA2E",
"5 c #67BD2D",
"6 c #68BB2F",
"7 c #68BC2F",
"8 c #69BD2F",
"9 c #69B631",
"0 c #6BB732",
"q c #6CB933",
"w c #6EBB34",
"e c #70BD35",
"r c #72BE36",
"t c #68C02E",
"y c #69C02E",
"u c #6AC42E",
"i c #6CC62F",
"p c #6CC72F",
"a c #6CC82F",
"s c #6DC82F",
"d c #6DCA30",
"f c #6FCD30",
"g c #73C037",
"h c #70CE31",
"j c #75C239",
"k c #77C43A",
"l c #79C53B",
"z c #7BC73C",
"x c #7CC93D",
"c c #7ECA3E",
"v c #72D232",
"b c #80CC3F",
"n c #FBF236",
"m c #82CE41",
"M c #83D042",
"N c #85D143",
"B c #87D344",
"V c #89D545",
"C c #8CD847",
"Z c #8FDB49",
"A c #90DC4A",
"S c #91DE4B",
"D c #93DF4C",
"F c #95E14D",
"G c #97E34E",
"H c #99E550",
"J c #FFF981",
"K c #FFFBAF",
"L c white",
/* pixels */
"                                                                ",
"                                   .@                           ",
"                                  ...@                          ",
"                                  @...                          ",
"                                   @.                   ..;     ",
"                                    n                .....<     ",
"        L                                         @......%q     ",
"                                              %@@.......#0r     ",
"                                           *%%.@*.......;wl     ",
"                       K                ;**%%@%@X......;qr      ",
"                       K             ;%%**%%@@.oXX.....;rl      ",
"                      KKK         <<<<<<%*%%@@...X....;9jc      ",
"                    KKLLKKKL   4<<4*<*%%*%@@@........@9rz       ",
"                      KKK   4444<<*4*;**%%@%%........;qlb       ",
"                       K88664<<<<<;*****%%@.ooo.....;9rc        ",
"                     fs866644<<<<;**%***%%..ooo.....9wlm        ",
"                  vhssi84744<<<;<<****%%%..........%9kcB        ",
"                HZvhdi8845442<<<****%%%....#......%0rcm         ",
"                HHfdu888q54<<<<<<****%............;wkcV         ",
"               HHhdiyy9459<4<<;;;***%...#........%9rcNA         ",
"               Hffauw8847<<<4*;*;**....%........#9rlmV          ",
"  L            Hfau855444<<<*<*<**.....#.@......%qrbVA          ",
"               fdy589444<<<<4***%...%..%.......#0rzmC           ",
"              fday5w5444<<<<*<*.ooo%@%@........;qlmBA           ",
"              diy55574<<<<;<**..oo%%%ooo......%qrbmAG           ",
"     vv     n iywt5q44<4<<<;;...@.%.oooo.....%9rzmVF            ",
"     vv       u855544<<<<<;*@.@%%%@%o.oo.....#wrcNAH            ",
"     vv      uy8qw444<<<;<*X..@%%%@.o..o....#qrzmZFH            ",
"     vv      y88554<4<<<*<%..;%%@@@o........;wjmVSH             ",
"   vvvvvv    58644474<<%**.XX*%%@@o........%9rcVZFH             ",
"   vvvvvv    866444<<<;<*XXX@@%@.oo........4wcmVFH              ",
"     vv     888644<<<<<;XXX*@@@@Xo........%9jcNZHH              ",
"     vv     47474<<<<<**oo*%@@@@XX.......%0rzmADHH              ",
"     vv     75q4<<<<***.oo%%@@@oXo.......;wlmBSHHJ              ",
"            474<<<<<4*o.o@%%@@ooo.......%9rcNAFHHJJ             ",
"           5q44<4<<<*.oo*%@@@@o.oo.....@4wlmVSHHHJJJJJ          ",
"           q4444<<;;*oo*%%%o%oo........@9jcNAHHHJJJJ            ",
"           544<<<<*<oooX%%o%o%o.......@9rlNZFHHHJJJ             ",
"           8<<<<<<*.oo*%X*%X..........;qjmVAHHH  J              ",
"          4444<4*<..o*%%%$%X.........%qrxVAFHHH  J              ",
"          46<<;*<;..@%;@@@.@........%9wzmVDHH    J              ",
"          4<<<<<*X..*@@*@.@.........%0jcNAH                     ",
"          4<<<;;X..*%%@@@@.........%0rzBA                       ",
"         4<<<<<.XX%*%%@..@.........;wjm                         ",
"  L      4<<**.oo%**@%.%@.........%9r                           ",
"         6<<<%.o**%%%%%..........%4                        L    ",
"         <<<<ooo*%%%@@oo.........                               ",
"        <<**.oo**%@@@ooo.......                                 ",
"        <<<...**%%%*.........                                   ",
"        <<;..*;@%%%.@.....                                      ",
"        <*..X@*@%@@..oo.                                        ",
"       <<...***@%....#                                          ",
"       <XXX**@@.....             n               ..             ",
"       <XX**@.....                         L     ..             ",
"       ...;X....                              .......           ",
"      ........                                .......           ",
"      ......                                     ..             ",
"      ....                                       ..             ",
"         L                                       ..             ",
"                                                                ",
"                                                                ",
"                        L                             n         ",
"                                                                ",
"                                                                "
};
