/* XPM */
static char *Collectible2[] = {
/* columns rows colors chars-per-pixel */
"64 64 66 1 ",
"  c black",
". c #5DAA29",
"X c #5DAB29",
"o c #5EAB2A",
"O c #5EAC29",
"+ c #5FAD2A",
"@ c #60AD2B",
"# c #60AE2A",
"$ c #60AF2A",
"% c #60AF2B",
"& c #62AF2C",
"* c #62B12B",
"= c #62B22B",
"- c #63B32C",
"; c #65B22E",
": c #63B42C",
"> c #64B42C",
", c #64B62D",
"< c #65B72D",
"1 c #66B72D",
"2 c #67B42F",
"3 c #66B82E",
"4 c #67BA2E",
"5 c #67BD2D",
"6 c #68BB2F",
"7 c #68BF2D",
"8 c #68BC2F",
"9 c #69B631",
"0 c #6BB732",
"q c #6CB933",
"w c #6EBB34",
"e c #70BD35",
"r c #72BE36",
"t c #68C02E",
"y c #6AC32E",
"u c #6BC52F",
"i c #6CC62F",
"p c #6CC82F",
"a c #6DC82F",
"s c #6DCA30",
"d c #6FCD30",
"f c #73C037",
"g c #70CF31",
"h c #77C43A",
"j c #79C53B",
"k c #7BC73C",
"l c #7ECA3E",
"z c #72D232",
"x c #80CC3F",
"c c #FBF236",
"v c #82CE41",
"b c #83D042",
"n c #87D344",
"m c #89D545",
"M c #8CD847",
"N c #8EDA49",
"B c #8FDB49",
"V c #90DC4A",
"C c #91DE4B",
"Z c #93DF4C",
"A c #95E14D",
"S c #97E34E",
"D c #99E550",
"F c #FFF981",
"G c #FFFBAF",
"H c white",
/* pixels */
"                                                                ",
"                                                                ",
"                                                                ",
"                                     ..                         ",
"                                    XXXX                        ",
"                                    XXXX                        ",
"                                     XX                         ",
"                                      c                         ",
"                                                                ",
"                                                        ..-     ",
"                                                     .....;     ",
"        H                                         -......-w     ",
"                                              %%%.-.....+9r     ",
"                                           %=%%%........;wj     ",
"                       G                -==%.-.X.......-0r      ",
"                       G             4--==.:=X+........;rj      ",
"                      GGG         11>>==-%%%%%%.......%qhl      ",
"                    GGHHGGGH   ,41,,>%==-%%%.........@0rk       ",
"                      GGG   4444,,,=>>==%@%.%........-wjv       ",
"                       G976,44,44,>=>==%=%%.........-9rl        ",
"                     du7666666,1-,=>===%%%.........%9ejv        ",
"                  zgdauq6666,,1,,==>==%%@.........o%wrlm        ",
"                DBzdau7766611,,,,--=%%%...........+9rhv         ",
"                DDdppq79666,6,,,=--===............-whvm         ",
"               DDgduy7q4444,,,----==.............X9rlnN         ",
"    zz         Dzsuu5q54446,,--,-==.....%.......%4rjvm          ",
"    zz         Daiu797446,,,,,---%....%.%.......%wjlnN          ",
"    zz         sauq77644,,4,,.-==...-X=X.......%9rjvN           ",
"    zz        dsuu5t5496,1,>-.>....X.-.........;rjvnC           ",
"  zzzzzz      suy5w544,611,,-.....%-XX+.......%wrjnNS           ",
"  zzzzzz    c iyqy4944,,1,-,>...-%XX..........99jvmC            ",
"    zz        y7554444,411:=...=%%+-X........&9hlmCD            ",
"    zz       uyq766411,,>>,...==%.=.........@9ekvMZD            ",
"    zz       t469646111,>,=..=X#.%.#........90hxmZD             ",
"             5y674165,,>>>...=##%%.........%0rkmVSD             ",
"             79664111,,,,...XX%O%.........@9ehvMZD              ",
"            67q546,,,1,>...=.%.%OOO.......%qjlnNDD              ",
"            w7544,,4,,>=..#=.==.O........%9rjvMSDD              ",
"            71q741,,,==...=....O.........-qjlmZDDF              ",
"            6641,111,,...=%=.=OOO.......,9fjmNSDDFF             ",
"           t,6,,4,,,>....%%@..O........@2ehvmSSDDFFFFF          ",
"           q44464,,>=..=.%%%..O........&0hxnNDDDFFFF            ",
"           644,,,,2>...%.%%..O........%9rkvMSDDDFFF             ",
"           5444,-,>...==.%%.#........@-qhxmVDDD  F              ",
"          7,111,,>...=%%.%.%.........%0rkmVSDDD  F              ",
"          q4111,>=..%%=%+-X..........1rjvmZDD    F              ",
"          4411,>>...=%.%.XXX........%0hxnCD                     ",
"          :41,,>...=%%%%X=X........%0rkvM                       ",
"         4,,,,,...==%%%#.O.........-qhx                         ",
"  H      44,4-...=%%%O=...........%qh                           ",
"         6,,,>..=%=.%=.O.........%,                        H    ",
"         ,4=-...==%=#.O..........                               ",
"        ,,,,@..%=%%.X..........                                 ",
"        ,,>...%>%%%@--X......                        ..         ",
"        1->..=>.%%.+......                           ..         ",
"        1>...===%%%.....                          .......       ",
"       4,@..==%%%.....                            .......       ",
"       ,...=%%%.....             c                   ..         ",
"       ,..%==.....                         H         ..         ",
"       ...>.....                                     ..         ",
"      ........                                                  ",
"      ......                                                    ",
"      ....                                                      ",
"         H                                                      "
};
