/* XPM */
static char *_2f9c881fb444465e2c6f320007be2a4qrAp4DQOxHrIwpGW[] = {
/* columns rows colors chars-per-pixel */
"64 64 7 1 ",
"  c black",
". c red",
"X c #FBF236",
"o c #00FF89",
"O c #FFF981",
"+ c #FFFBAF",
"@ c white",
/* pixels */
"                                                                ",
"                                                                ",
"                                                                ",
"                                                                ",
"                                                                ",
"                                    X                           ",
"        @                                                       ",
"                                                                ",
"                                                          X     ",
"                       +                                        ",
"                       +                                        ",
"                      +++                                       ",
"                    ++@@+..............                         ",
"                      ....................                      ",
"                    ........................                    ",
"                   ..........................                   ",
"                  ..........@@....@@..........                  ",
"                 ........@@@@@....@@@@@........                 ",
"                 .......@@@@@@....@@@@@@.......    @            ",
"                .......@@@@@@@....@@@@@@@.......                ",
"                ......@@@@@@@@....@@@@@@@@......                ",
"  @            ......@@@@@@@@@....@@@@@@@@@......               ",
"               ......@@@@oo@@@....@@@@@@@@@......               ",
"               .....@@@@@oo@@@....@@@@@@@@@@.....               ",
"              ......@@@@@@@@@@....@@@@@@@@@@......              ",
"            X .....@@@@@@@@@@@....@@@@@@@@@@@.....              ",
"              .....@@@@@@@@@@@....@@@@@@@@@@@.....              ",
"              .....@@@@@@@@@@@....@@oo@@@@@@@.....              ",
"              ....@@@@@@@@@@@@....@@oo@@@@@@@@....              ",
"              ....@@@@@@@@@@@@....@@@@@@@@@@@@....              ",
"              ....@@@@@@@@@@@@....@@@@@@@@@@@@....              ",
"              ......@@@@@@@@@......@@@@@@@@@......              ",
"              ........@@@@@@........@@@@@@........              ",
"              ....................................              ",
"              ....................................O             ",
"              .........................@@@........OOOO          ",
"              .........@@@@....@@@....@@@@@.......OO            ",
"              ....@@@..@@@@@..@@@@@..@@@@@@@@.....O             ",
"              ....@@@@@@@@@@@@@@@@@@@@@@@@@@@.....              ",
"              ....@@@@@@@@@@@@@@@@@@@@@@@@@@@.....              ",
"              ....@@@@@@@@@@@@@@@@@@@@@...........              ",
"              .....@@@@@@..@@@@...@@@@............              ",
"              ......@@@@..........................              ",
"               ......@@@.........................               ",
"  @            ..................................               ",
"               ..................................          @    ",
"               .........     ......     .........               ",
"               .......                    .......               ",
"               .......                    .......               ",
"               ......                      ......               ",
"         @    .......                      .......              ",
"         @    .......                      .......              ",
"         @    .......            X         .......              ",
"         @    .......                      .......              ",
"        @@@    ......                      ......               ",
"      @@@@@@@  ......                      ......               ",
"        @@@    ......                      ......               ",
"         @     ......                      ......               ",
"         @     ......                      ......               ",
"               ......                      ......               ",
"               ......                      ......               ",
"               ......   @                  ......     X         ",
"               .....                        .....               ",
"                ....                        ....                "
};
