/* XPM */
static char *b76ee50752c4436fa7a925798cf9674aUFUbSPTroXTy70qg[] = {
/* columns rows colors chars-per-pixel */
"64 64 11 1 ",
"  c black",
". c gray20",
"X c gray31",
"o c #696A6A",
"O c red",
"+ c #7D8593",
"@ c #00FF89",
"# c #FFFCB3",
"$ c #A9B2C6",
"% c #CBDBFC",
"& c white",
/* pixels */
"         &     ooooooooooooooooooooooooooooooooooo              ",
"              ooooooooooooooooooooooooooooooooooooo       #     ",
"             ooooooooooooooooooooooooooooooooooooooo            ",
"            ooooooooooooooooooooooooooooooooooooooooo           ",
"           oooooo%%%%%%%%%%%%%%%%%%%%%%%%%%%%%%ooooooo          ",
"          ooooooo%%%%%%%%%%%%%%%%%%%%%%%%%%%%%%%ooooooo         ",
"         ooooooo%%%%%%%%%%%%%%%%%%%%%%%%%%%%%%%%%ooooooo        ",
"        ooooooo%%%%%%%%%%%%%%%%%%%%%%%%%%%%%%%%%%%ooooooo       ",
"       ooooooo%%%%%%%%%%%%%%%%%%%%%%%%%%%%%%%%%%%%%ooooooo      ",
"      ooooooo%%%%%%%%%%%%%%%%%%%%%%%%%%%%%%%%%%%%%%%ooooooo     ",
"     ooooooo%%%%%%%%%%%%%%%%%%%%%%%%%%%%%%%%%%%%%%%%%ooooooo    ",
"    ooooooo%%%%%%%%%%%%%%%%++++++++++%%%%%%%%%%%%%%%%%ooooooo   ",
"#  ooooooo%%%%%%%%%%%%%%+OOOOOOOOOOOOOO+%%%%%%%%%%%%%%%ooooooo  ",
"  ooooooo%%%%%%%%%%%%%OOOOOOOOOOOOOOOOOOOO%%%%%%%%%%%%%%ooooooo ",
" ooooooo%%%%%%%%%%%%OOOOOOOOOOOOOOOOOOOOOOOO%%%%%%%%%%%%%ooooooo",
"ooooooo%%%%%%%%%%%%OOOOOOOOOOOOOOOOOOOOOOOOOO%%%%%%%%%%%%%oooooo",
"oooooo%%%%%%%%%%%%OOOOOOOOOO&&OOOO&&OOOOOOOOOO%%%%%%%%%%%%%ooooo",
"ooooo%%%%%%%%%%%%OOOOOOOO&&&&&OOOO&&&&&OOOOOOOO%%%%%%%%%%%%ooooo",
"ooooo%%%%%%%%%%%%OOOOOOO&&&&&&OOOO&&&&&&OOOOOOO%%%%%%%%%%%%ooooo",
"ooooo%%%%%%%%%%%OOOOOOO&&&&&&&OOOO&&&&&&&OOOOOOO%%%%%%%%%%%ooooo",
"ooooo%%%%%%%%%%%OOOOOO&&&&&&&&OOOO&&&&&&&&OOOOOO%%%%%%%%%%%ooooo",
"ooooo%%%%%%%%%%OOOOOO&&&&&&&&&OOOO&&&&&&&&&OOOOOO%%%%%%%%%%ooooo",
"ooooo%%%%%%%%%%OOOOOO&&&&@@&&&OOOO&&&&&&&&&OOOOOO%%%%%%%%%%ooooo",
"ooooo%%%%%%%%%%OOOOO&&&&&@@&&&OOOO&&&&&&&&&&OOOOO%%%%%%%%%%ooooo",
"ooooo%%%%%%%%%OOOOOO&&&&&&&&&&OOOO&&&&&&&&&&OOOOOO%%%%%%%%%ooooo",
"ooooo%%%%%%%%%OOOOO&&&&&&&&&&&OOOO&&&&&&&&&&&OOOOO%%%%%%%%%ooooo",
"ooooo%%%%%%%%%OOOOO&&&&&&&&&&&OOOO&&&&&&&&&&&OOOOO%%%%%%%%%ooooo",
"ooooo%%%%%%%%%OOOOO&&&&&&&&&&&OOOO&&@@&&&&&&&OOOOO%%%%%%%%%ooooo",
"ooooo%%%%%%%%%OOOO&&&&&&&&&&&&OOOO&&@@&&&&&&&&OOOO%%%%%%%%%ooooo",
"ooooo%%%%%%%%%OOOO&&&&&&&&&&&&OOOO&&&&&&&&&&&&OOOO%%%%%%%%%ooooo",
"ooooo%%%%%%%%%OOOO&&&&&&&&&&&&OOOO&&&&&&&&&&&&OOOO%%%%%%%%%ooooo",
"ooooo%%%%%%%%%OOOOOO&&&&&&&&&OOOOOO&&&&&&&&&OOOOOO%%%%%%%%%ooooo",
"ooooo%%%%%%%%%OOOOOOOO&&&&&&OOOOOOOO&&&&&&OOOOOOOO%%%%%%%%%ooooo",
"ooooo%%%%%%%%%OOOOOOOOOOOOOOOOOOOOOOOOOOOOOOOOOOOO%%%%%%%%%ooooo",
"ooooo%%%%%%%%%OOOOOOOOOOOOOOOOOOOOOOOOOOOOOOOOOOOO%%%%%%%%%ooooo",
"ooooo%%%%%%%%%OOOOOOOOOOOOOOOOOOOOOOOOO&&&OOOOOOOO%%%%%%%%%ooooo",
"ooooo%%%%%%%%%OOOOOOOOO&&&&OOOO&&&OOOO&&&&&OOOOOOO%%%%%%%%%ooooo",
"ooooo%%%%%%%%%OOOO&&&OO&&&&&OO&&&&&OO&&&&&&&&OOOOO%%%%%%%%%ooooo",
"ooooo%%%%%%%%%OOOO&&&&&&&&&&&&&&&&&&&&&&&&&&&OOOOO%%%%%%%%%ooooo",
"ooooo%%$$$$$$$OOOO&&&&&&&&&&&&&&&&&&&&&&&&&&&OOOOO$$$$$$$%%ooooo",
"ooooo%%$$$$$$$OOOO&&&&&&&&&&&&&&&&&&&&&OOOOOOOOOOO$$$$$$$%%ooooo",
"ooooo%%%%%%%%%OOOOO&&&&&&OO&&&&OOO&&&&OOOOOOOOOOOO%%%%%%%%%ooooo",
"ooooo%%%%%%%%%OOOOOO&&&&OOOOOOOOOOOOOOOOOOOOOOOOOO%%%%%%%%%ooooo",
"ooooo%%$$$$$$$$OOOOOO&&&OOOOOOOOOOOOOOOOOOOOOOOOO$$$$$$$$%%ooooo",
"ooooo%%$$$$$$$$OOOOOOOOOOOOOOOOOOOOOOOOOOOOOOOOOO$$$$$$$$%%ooooo",
"ooooo%%%%%%%%%%OOOOOOOOOOOOOOOOOOOOOOOOOOOOOOOOOO%%%%%%%%%%ooooo",
"ooooo%%%%%%%%%%OOOOOOOOO%%%%%OOOOOO%%%%%OOOOOOOOO%%%%%%%%%%ooooo",
"ooooo%%$$$$$$$$OOOOOOO$$$$$$$$$$$$$$$$$$$$OOOOOOO$$$$$$$$%%ooooo",
"ooooo%%$$$$$$$$OOOOOOO$$$$$$$$$$$$$$$$$$$$OOOOOOO$$$$$$$$%%ooooo",
"ooooo%%%%%%%%%%OOOOOO%%%%%%%%%%%%%%%%%%%%%%OOOOOO%%%%%%%%%%ooooo",
"ooooo%%%%%%%%%OOOOOOO%%%%%%%%%%%%%%%%%%%%%%OOOOOOO%%%%%%%%%ooooo",
"ooooo%%$$$$$$$OOOOOOO$$$$$$$$$$$$$$$$$$$$$$OOOOOOO$$$$$$$%%ooooo",
"ooooo%%$$$$$$$OOOOOOO$$$$$$$$$$$$$$$$$$$$$$OOOOOOO$$$$$$$%%ooooo",
"ooooo%%%%%%%%%OOOOOOO%%%%%%%%%%%%%%%%%%%%%%OOOOOOO%%%%%%%%%ooooo",
"ooooo%%%%%%%%%%OOOOOO%%%%%%%%%%%%%%%%%%%%%%OOOOOO%%%%%%%%%%ooooo",
"ooooo%%$$$$$$$$OOOOOO$$$$$$$$$$$$$$$$$$$$$$OOOOOO$$$$$$$$%%ooooo",
"ooooo%%$$$$$$$$OOOOOO$$$$$$$$$$$$$$$$$$$$$$OOOOOO$$$$$$$$%%ooooo",
"ooooo%%%%%%%%%%OOOOOO%%%%%%%%%%%%%%%%%%%%%%OOOOOO%%%%%%%%%%ooooo",
"ooooo%%%%%%%%%%OOOOOO%%%%%%%%%%%%%%%%%%%%%%OOOOOO%%%%%%%%%%ooooo",
"o....%%%%%%%%%%OOOOOO%%%%%%%%%%%%%%%%%%%%%%OOOOOO%%%%%%%%%%....o",
"o....XXXXXXXXXXOOOOOOXXXXXXXXXXXXXXXXXXXXXXOOOOOOXXXXXXXXXX....o",
"o....XXXXXXXXXXOOOOOOXXXXXXXXXXXXXXXXXXXXXXOOOOOOXXXXXXXXXX....o",
"o..............OOOOO........................OOOOO..............o",
"o...............OOOO........................OOOO...............o"
};
