/* XPM */
static char *_57d7aef7232438592c62a74947767db[] = {
/* columns rows colors chars-per-pixel */
"64 64 3 1 ",
"  c black",
". c #FFFCB3",
"X c white",
/* pixels */
"                                                                ",
"                                                                ",
"                                                                ",
"                                                                ",
"                                                                ",
" .                                                              ",
"                                                                ",
"                                                                ",
"                        ..........                              ",
"                        ...........  X                          ",
"                        ............                            ",
"                        ............                  .         ",
"                          ...........                           ",
"                      .    ...........                          ",
"                           ............                         ",
"               ........  ..............                         ",
"            .................XXX.......                         ",
"           ..................XXXX.......                        ",
"         X ...................XXXXX.....                        ",
"         X .......XXXXXX......XXXXXX....                        ",
"         X .......XXXXXXX.....XXXXXX....      X....             ",
"        XXX     ...XXXXXXX....XXXXXX....       .....            ",
"         X      ...XXXXXXXX...XXXXXXX....      .....            ",
"                ....XXXXXXX...XXXXXXX....      .....            ",
"                ....XXXXXXXX.XXXXXXXX......    .....            ",
"                ....XXXXXXXXXXXXXXXXX.......   .....            ",
"               .....XXXXXXXXXXXXXXXXXX....... ......            ",
"              ......XXXXXXXXXXXXXXXXXX..............            ",
"             ......XXXXXXXXXXXXXXXXXXX..............            ",
"            .......XXXXXXXXXXXXXXXXXXX..............            ",
"            ......XXXXXXXXXXXXXXXXXXXX..............            ",
"            ...XXXXXXXXXXXXXXXXXXXXXXX.............             ",
"            .XXXXXXXXXXXXXXXXXXXXXXXXX.............             ",
"            .XXXXXXXXXXXXXXXXXXXXXXXX.....XXX......             ",
"           ..XXXXXXXXXXXXXXXXXXXXXXX..XXXXXXX......             ",
"          ...XXXXXXXXXXXXXXXXXXXXXXXXXXXXXXXX......             ",
"          ..XXXXXXXXXXXXXXXXXXXXXXXXXXXXXXXX......              ",
"          ..XXXXXXXXXXXXXXXXXXXXXXXXXXXXXXX.......              ",
"          ..XXXXXXXXXXXXXXXXXXXXXXXXXXXXXXX.......              ",
"          ..XXXXXXXXXXXXXXXXXXXXXXXXXXXXXX.......               ",
"         ...XXXX......XXXXXXXXXXXXXXXXXX.......                 ",
"         ...XXX........XXXXXXXXXXXXXXXX........                 ",
"         ...XX.........XXXXXXXX..............                   ",
"         ....... .......XXXXXXXX............                    ",
"         .......  ......XXXXXXXXXXX........                     ",
"         ......    ......XXXXXXXXXX........                     ",
"         .....      ......XXXXXXXXXXXX....                      ",
"         .....       ........XXXXXXXXX....                      ",
"          ....        .......XXXXXXXXX....                      ",
"                       ....................                     ",
"                         ...................                    ",
"                             ....................               ",
"                               ..................               ",
"                         .       ................               ",
"X                                 ...............   X           ",
"                                     ..........                 ",
"                                                                ",
"                                                                ",
"                                                                ",
"                                                                ",
"                                                                ",
"                                                                ",
"                                                                ",
"            .                                                   "
};
