/* XPM */
static char *_bfb722e53a84069b1ef933e28cd1017[] = {
/* columns rows colors chars-per-pixel */
"64 64 5 1 ",
"  c black",
". c #44005B",
"X c #BB00FC",
"o c #FFFCB3",
"O c white",
/* pixels */
"                                                   o            ",
"                                                                ",
"                                                                ",
"                                                                ",
"                                                                ",
"                                                                ",
"                                                                ",
"                                                                ",
"                 XXXXXXXXXX                                     ",
"           O   XXXXXXXXXXXXXXX                                 O",
"               XXXXXXXXXXXXXXXX       o                         ",
"               XXXXXXXXXXXXXXXXXX                               ",
"               XXXXXXXXXXXXXXXXXXXX                             ",
"                    XXXXXXXXXXXXXXXXXXX                         ",
"                     XXXXXXXXXXXXXXXXXXXX                       ",
"                      XXXX.........XXXXXXX        XXXX          ",
"                      XXXX.........XXXXXXXX       XXXXX         ",
"                      XXXX............XXXXXX      XXXXX         ",
"                     XXXXXXXX..........XXXXXX    XXXXXX         ",
"                     XXXXXXXX...........XXXXXX  XXXXXXX         ",
"                    XXXXXXXXXXXX........XXXXXXX XXXXXXX         ",
"                   XXXXXXXXXXXXXX........XXXXXXXXX..XXX         ",
"                 XXXXXXXX................XXXXXXXX...XXX         ",
"                 XXXXXXX..................XXXXXX....XXX         ",
"               XXXXXXX..............................XX          ",
"              XXXXXXX...............................XX          ",
"              XXXXXXX...............................XX          ",
"              XXXXXX................................XX          ",
"             XXXXXX................................XXX          ",
"             XXXXXX.......XX.......................XX           ",
"             XXXXXX...XXXXX........................X            ",
"             XXXXXXXXXXXXX.........................X            ",
"             XXXXXXXXXXXXX.......................XXX            ",
"            XXXXXXXXXXXXXX....................XXXXXX            ",
"            XXXXXXXXXXXXXX...................XXXXXXX            ",
"            XXXXXXXXXXXXXX...................XXXXXX             ",
"            XXXXXXXXXXXXXX..................XXXXXX              ",
"            XXXXXX XXXXXXX..................XXXXX               ",
"            XXXXX   XXXXXXX.................XXXX                ",
"            XXXXX    XXXXXX........X........XXXX                ",
"            XXXXX      XXXX.......XXX.......XXXX                ",
"            XXXXX      XXXX.......XXX........XXX      O         ",
"            XXXXX       XXXX......XXXX.......XXX     OOO        ",
"             XXXXO      XXXX......XXXXX.......XXXXXXX O         ",
"                        XXXX......XXXXXX......XXXXXXX O         ",
"                        XXXXX.....XXXXXXXXXXXXXXXXXXX O         ",
"                        XXXXXXX....XXXXXXXXXXXXXXXXXX           ",
"                         XXXXXXX...XXXXXXXXXXXXXXXXX            ",
"                         XXXXXXXXXXXXXX  XXXXXXXX               ",
"                         XXXXXXXXXXXX                           ",
"                          XXXXXXXXXXX    o                      ",
"                           XXXXXXXXXXX                          ",
"         o                  XXXXXXXXXXXX                        ",
"                            XXXXXXXXXXXX                        ",
"                          O  XXXXXXXXXXX                        ",
"                              XXXXXXXXXX                        ",
"                                                                ",
"                                                                ",
"                                                              o ",
"                                                                ",
"                                                                ",
"                                                                ",
"                                                                ",
"                                                                "
};
