/* XPM */
static char *ce31e7d2e8a646cd8f6bbd4f8be07fb4[] = {
/* columns rows colors chars-per-pixel */
"64 64 5 1 ",
"  c black",
". c #44005B",
"X c #BB00FC",
"o c #FFFCB3",
"O c white",
/* pixels */
"                                                                ",
"                                                                ",
"                                                                ",
"                                                                ",
"                                                                ",
" o                                                              ",
"                                                                ",
"                                                                ",
"                        XXXXXXXXXX                              ",
"                        XXXXXXXXXXX  O                          ",
"                        XXXXXXXXXXXX                            ",
"                        XXXXXXXXXXXX                  o         ",
"                          XXXXXXXXXXX                           ",
"                      o    XXXXXXXXXXX                          ",
"                           XXXXXXXXXXXX                         ",
"               XXXXXXXX  XXXXXXXXXXXXXX                         ",
"            XXXXXXXXXXXXXXXXX...XXXXXXX                         ",
"           XXXXXXXXXXXXXXXXXX....XXXXXXX                        ",
"         O XXXXXXXXXXXXXXXXXXX.....XXXXX                        ",
"         O XXXXXXX......XXXXXX......XXXX                        ",
"         O XXXXXXX.......XXXXX......XXXX      OXXXX             ",
"        OOO     XXX.......XXXX......XXXX       XXXXX            ",
"         O      XXX........XXX.......XXXX      XXXXX            ",
"                XXXX.......XXX.......XXXX      XXXXX            ",
"                XXXX........X........XXXXXX    XXXXX            ",
"                XXXX.................XXXXXXX   XXXXX            ",
"               XXXXX..................XXXXXXX XXXXXX            ",
"              XXXXXX..................XXXXXXXXXXXXXX            ",
"             XXXXXX...................XXXXXXXXXXXXXX            ",
"            XXXXXXX...................XXXXXXXXXXXXXX            ",
"            XXXXXX....................XXXXXXXXXXXXXX            ",
"            XXX.......................XXXXXXXXXXXXX             ",
"            X.........................XXXXXXXXXXXXX             ",
"            X........................XXXXX...XXXXXX             ",
"           XX.......................XX.......XXXXXX             ",
"          XXX................................XXXXXX             ",
"          XX................................XXXXXX              ",
"          XX...............................XXXXXXX              ",
"          XX...............................XXXXXXX              ",
"          XX..............................XXXXXXX               ",
"         XXX....XXXXXX..................XXXXXXX                 ",
"         XXX...XXXXXXXX................XXXXXXXX                 ",
"         XXX..XXXXXXXXX........XXXXXXXXXXXXXX                   ",
"         XXXXXXX XXXXXXX........XXXXXXXXXXXX                    ",
"         XXXXXXX  XXXXXX...........XXXXXXXX                     ",
"         XXXXXX    XXXXXX..........XXXXXXXX                     ",
"         XXXXX      XXXXXX............XXXX                      ",
"         XXXXX       XXXXXXXX.........XXXX                      ",
"          XXXX        XXXXXXX.........XXXX                      ",
"                       XXXXXXXXXXXXXXXXXXXX                     ",
"                         XXXXXXXXXXXXXXXXXXX                    ",
"                             XXXXXXXXXXXXXXXXXXXX               ",
"                               XXXXXXXXXXXXXXXXXX               ",
"                         o       XXXXXXXXXXXXXXXX               ",
"O                                 XXXXXXXXXXXXXXX   O           ",
"                                     XXXXXXXXXX                 ",
"                                                                ",
"                                                                ",
"                                                                ",
"                                                                ",
"                                                                ",
"                                                                ",
"                                                                ",
"            o                                                   "
};
