/* XPM */
static char *_0358d9133a7418caafdb5a089371dda[] = {
/* columns rows colors chars-per-pixel */
"64 64 5 1 ",
"  c black",
". c #44005B",
"X c #BB00FC",
"o c #FFFCB3",
"O c white",
/* pixels */
"         O                                                      ",
"                                                          o     ",
"                                                                ",
"                                                                ",
"                                                                ",
"                                                                ",
"                                                                ",
"                                                                ",
"                                          O                     ",
"                XXXXXXXX                 OOOOO                  ",
"               XXXXXXXXXXXXXX             O                     ",
"               XXXXXXXXXXXXXXX             XXXX                 ",
"o              XXXXXX.......XXXXXXX        XXXXX                ",
"               XXXXXX...........XXXX       XXXXX                ",
"                  XXXX..........XXXXX      XXXXX                ",
"                   XXXX..........XXXXX     XXXXXX               ",
"                     XXX.........XXXXXXXXXXXXXXXX               ",
"                    XXXX.........XXXXXXXXXXXXXXXX               ",
"                   XXXXX..........XXXXXXXXX..XXXX               ",
"                  XXXXXX............XXXXX....XXXX               ",
"                 XXXXXXX.....................XXXX               ",
"                XXXXXXXX.....................XXXX               ",
"               XXXXXXXX......................XXXX o             ",
"              XXXXXXX........................XXX                ",
"              XXXXX.........................XXXX    XXXX        ",
"          o  XXXXX.........................XXXXXX   XXXX        ",
"             XXXX.........................XXXXXXX  XXXXX        ",
"             XXXX.......................XXXXXXXXXXXXXXXX        ",
"             XXXX......................XXXXXXXXXXXXXXXXX        ",
"            XXX.........................XXXXXX..XXXXXXXX        ",
"            XXX.................................XXXXXXXX        ",
"           XXXX......X..........................XXXXXXXX        ",
"           XXXX.....XX.........................XXXXXXXXX        ",
"          XXXXX.....XX........................XXXXXXXXXX        ",
"         XXXXXX.....XX........................XXXXXXXXX         ",
"         XXXXXX...XXXX.......................XXXXXXXXX          ",
"         XXXXXX...XXXX.......X............XXXXXXXXXX            ",
"        XXXXXXX...XXXX.......XX.......XXXXXXXXXXXXX   O         ",
"        XXXXXXXXXXXXXX........XXXXXXXXXXXXXXXXXXXX              ",
"        XXXXXXXXXXXXXXX.......XXXXXXXXXXXXXXXXX                 ",
"        XXXXXXXXXXXXXXXX......XXXXXXXXXXXX                      ",
"        XXXXXXXXXXXXXXXX......XXXXXXXXXX                        ",
"        XXXXXXX   XXXXXXX......XXXXXXXXX                        ",
"        XXXXXX      XXXXXXX....XXXXXXXX                         ",
"        XXXXX        XXXXXXX...XXXXXXX                          ",
"        XXXXX         XXXXXXXXXXXXXXX                           ",
"        XXXXX         XXXXXXXXXXXXXXXX     O                    ",
"         XXXX           XXXXXXXXXXXXXXXXXXXX                    ",
"         XXXX           XXXXXXXXXXXXXXXXXXXX                    ",
"                         XXXXXXXXXXXXXXXXXXX                    ",
"                            XXXXXXXXXXXXXXXX                    ",
"                                 XXXXXXXXXX                     ",
"         O                                                      ",
"                                                                ",
"                                                    o           ",
"                                                                ",
"                                                                ",
"                                                                ",
"                                                                ",
"                                                                ",
"                                                                ",
"                                                                ",
"                                                                ",
"                                                                "
};
