/* XPM */
static char *_69d09eb05f1476d925b0fb26dc7e77d[] = {
/* columns rows colors chars-per-pixel */
"64 64 3 1 ",
"  c black",
". c #FFFCB3",
"X c white",
/* pixels */
"                                                                ",
"                                                                ",
"                                                                ",
"                                                                ",
"                                                                ",
"                                                                ",
"                                                                ",
"                                                                ",
"                                                                ",
"           .                                                    ",
"                                                                ",
"                                                      X         ",
"                     ..........                                 ",
"                    ................                            ",
"                    ...................                         ",
"                    ....................           ....         ",
"                    ....................           ....         ",
"                    X     ................         .....        ",
"                           ...............         .....        ",
"                          .......XXX.......        .....        ",
"                         ........XXXX.......      ......        ",
"                        .........XXXXXX.......   .......        ",
"                        ..........XXXXXX................        ",
"                      ............XXXXXX................        ",
"                 .................XXXXXXX...............        ",
"              ....................XXXXXXXX..............        ",
"         X   .............XXXXXXX..XXXXXXX....XXX.......        ",
"            ..........XXXXXXXXXXXX.XXXXXXX....XXX......         ",
"          .........XXXXXXXXXXXXXXXXXXXXXXX....XXX......         ",
"         .........XXXXXXXXXXXXXXXXXXXXXXXX..XXXXX......         ",
"        ..........XXXXXXXXXXXXXXXXXXXXXXXX..XXXXX.....          ",
"        .........XXXXXXXXXXXXXXXXXXXXXXXXX..XXXXX....           ",
"        ........XXXXXXXXXXXXXXXXXXXXXXXXXX.XXXXXX....           ",
"        ........XXXXXXXXXXXXXXXXXXXXXXXXXXXXXXXXX...            ",
"        ........XX......XXXXXXXXXXXXXXXXXXXXXXXXX...            ",
"        .................XXXXXXXXXXXXXXXXXXXXXX....             ",
"        ................XXXXXXXXXXXXXXXXXXXXXXX....             ",
"        .....  .......XXXXXXXXXXXXXXXXXXXXXXXXX....             ",
"        ....   ......XXXXXXXXXXXXXXXXXXXXXXXXX.....  .          ",
"        ....    ....XXXXXXXXXXXXXXXXXXXXXXXXX.....              ",
"                ...XXXXXXXXXXXXXXXXXXXXXXXX.......              ",
"             . ....XXXXXXXXXXXXXXXXXXXXXX........               ",
"               ....XXXXXXXXXXXXXXXXXXXXX........                ",
"               ....XXXXXXXXXXXXXXXXXXXXX.......                 ",
"               ....XXXX.....XXXXXXXXXXXX......                  ",
"               ....XX.........XXXXXXXXXX.....                   ",
"               ................XXXXXXXXX....                    ",
"               ................XXXXXXXXX...                     ",
"               ......     .....XXXXXXXXXX....                   ",
"                .....      .....XXXXXXXXXX....                  ",
"                .....       ....XXXXXXXXXXX......               ",
"                .....        .......XXXXXXX......              .",
"                 ....             ...............               ",
"                     X             ..............               ",
"                  XXXXX                 ........                ",
"                     X                                          ",
"                                                                ",
"                                                                ",
"                                                                ",
"                                                                ",
"                                                                ",
"                                                                ",
"     .                                                          ",
"                                                      X         "
};
