/* XPM */
static char *_e7aa512f4284355a8763cd8655727b7[] = {
/* columns rows colors chars-per-pixel */
"64 64 7 1 ",
"  c black",
". c #B55697",
"X c #E970C3",
"o c #FF74D3",
"O c #FFFCB3",
"+ c #FF8BDA",
"@ c white",
/* pixels */
"         @                                                      ",
"                                                          O     ",
"                                                                ",
"                                                                ",
"                                                                ",
"                                                                ",
"                                                                ",
"                                                                ",
"                                          @                     ",
"                OOOOOOOO                 @@@@@                  ",
"               OOOOOOOOOOOOOO             @                     ",
"               OOOOOOOOOOOOOOO             OOOO                 ",
"O              OOOOOO@@@@@@@OOOOOOO        OOOOO                ",
"               OOOOOO@@@@@@@@@@@OOOO       OOOOO                ",
"                  OOOO@@@@@@@@@@OOOOO      OOOOO                ",
"                   OOOO@@@@@@@@@@OOOOO     OOOOOO               ",
"                     OOO@@@@@@@@@OOOOOOOOOOOOOOOO               ",
"                    OOOO@@@@@@@@@OOOOOOOOOOOOOOOO               ",
"                   OOOOO@@@@@@@@@@OOOOOOOOO@@OOOO               ",
"                  OOOOOO@@@@@@@@@@@@OOOOO@@@@OOOO               ",
"                 OOOOOOO@@@@@@@@@@@@@@@@@@@@@OOOO               ",
"                OOOOOOOO@@@@@@@@@@@@@@@@@@@@@OOOO               ",
"               OOOOOOOO@@@@@@@@@@@@@@@@@@@@@@OOOO O             ",
"              OOOOOOO@@@@@@@@@@@@@@@@@@@@@@@@OOO                ",
"              OOOOO@@@@@@@@@@@@..@@@@@@@@@@@OOOO    OOOO        ",
"          O  OOOOO@@...@@@@....++....@@@@@..OOOOO   OOOO        ",
"             OOOO@@.+++..@.++++++++++.@..+++.OOOO  OOOOO        ",
"             OOOO@.++++++.++++++++++++.++++++.OOOOOOOOOO        ",
"        .....OOOO.++++++++++++++++++++++++++++.OOOO.....        ",
"       .+++++...@.++++++++++++++++++++++++++++.@...+++++.       ",
"      .+++++++++.++++++++++++++++++++++++++++++.+++++++++.      ",
"     .+++++++++++++++++@@@@@@++++++@@@@@@+++++++++++++++++.     ",
"      .++++++++++++++@@@@@@@@@@++@@@@@@@@@@++++++++++++++.      ",
"      .++++++++++++++@@@@@@@@@@++@@@@@@@@@@++++++++++++++.      ",
"      .++++++++++++++@@@++++@@@++@@@++++@@@++++++++++++++.      ",
"      .++++++++++++++++++++++++++++++++++++++++++++++++++.      ",
"       .++++++++++++++++++++++++++++++++++++++++++++++++.       ",
"    ...++++++++++++++++++++++++++++++++++++++++++++++++++...    ",
"   .++++++++++++++++++++++++++++++++++++++++++++++++++++++++.   ",
"  .+++++++++ooooo++++++++++++++++++++++++++++++ooooo+++++++++.  ",
"  .+++++++++ooooo+++++++@@@++++++++++@@@+++++++ooooo+++++++++.  ",
"  .+++++++++ooooo+++++++@@@@++++++++@@@@+++++++ooooo+++++++++.  ",
"   .+++++++++XXX++++++++@@@@@@@++@@@@@@@++++++++XXX+++++++++.   ",
"   .++++++++++++++++++++@@@@@@@@@@@@@@@@++++++++++++++++++++.   ",
"   .++++++++++++++++++++++@@@@@@@@@@@@++++++++++++++++++++++.   ",
"    ....++++++++++++++++++++@@@@@@@@++++++++++++++++++++....    ",
"        ..+++++++...++++++++++++++++++++++++...+++++++..        ",
"         O.......   ....++++++++++++++++....   .......          ",
"         OOOO           .++++++++++++++.OOOO                    ",
"                         ..............OOOOO                    ",
"                            OOOOOOOOOOOOOOOO                    ",
"                                 OOOOOOOOOO                     ",
"         @                                                      ",
"                                                                ",
"                                                    O           ",
"                                                                ",
"                                                                ",
"                                                                ",
"                                                                ",
"                                                                ",
"                                                                ",
"                                                                ",
"                                                                ",
"                                                                "
};
