/* XPM */
static char *_ed85156f5054845b0d520dc46b9cfa6[] = {
/* columns rows colors chars-per-pixel */
"64 64 3 1 ",
"  c black",
". c #FFFCB3",
"X c white",
/* pixels */
"                                                   .            ",
"                                                                ",
"                                                                ",
"                                                                ",
"                                                                ",
"                                                                ",
"                                                                ",
"                                                                ",
"                 ..........                                     ",
"           X   ...............                                 X",
"               ................       .                         ",
"               ..................                               ",
"               ....................                             ",
"                    ...................                         ",
"                     ....................                       ",
"                      ....XXXXXXXXX.......        ....          ",
"                      ....XXXXXXXXX........       .....         ",
"                      ....XXXXXXXXXXXX......      .....         ",
"                     ........XXXXXXXXXX......    ......         ",
"                     ........XXXXXXXXXXX......  .......         ",
"                    ............XXXXXXXX....... .......         ",
"                   ..............XXXXXXXX.........XX...         ",
"                 ........XXXXXXXXXXXXXXXX........XXX...         ",
"                 .......XXXXXXXXXXXXXXXXXX......XXXX...         ",
"               .......XXXXXXXXXXXXXXXXXXXXXXXXXXXXXX..          ",
"              .......XXXXXXXXXXXXXXXXXXXXXXXXXXXXXXX..          ",
"              .......XXXXXXXXXXXXXXXXXXXXXXXXXXXXXXX..          ",
"              ......XXXXXXXXXXXXXXXXXXXXXXXXXXXXXXXX..          ",
"             ......XXXXXXXXXXXXXXXXXXXXXXXXXXXXXXXX...          ",
"             ......XXXXXXX..XXXXXXXXXXXXXXXXXXXXXXX..           ",
"             ......XXX.....XXXXXXXXXXXXXXXXXXXXXXXX.            ",
"             .............XXXXXXXXXXXXXXXXXXXXXXXXX.            ",
"             .............XXXXXXXXXXXXXXXXXXXXXXX...            ",
"            ..............XXXXXXXXXXXXXXXXXXXX......            ",
"            ..............XXXXXXXXXXXXXXXXXXX.......            ",
"            ..............XXXXXXXXXXXXXXXXXXX......             ",
"            ..............XXXXXXXXXXXXXXXXXX......              ",
"            ...... .......XXXXXXXXXXXXXXXXXX.....               ",
"            .....   .......XXXXXXXXXXXXXXXXX....                ",
"            .....    ......XXXXXXXX.XXXXXXXX....                ",
"            .....      ....XXXXXXX...XXXXXXX....                ",
"            .....      ....XXXXXXX...XXXXXXXX...      X         ",
"            .....       ....XXXXXX....XXXXXXX...     XXX        ",
"             ....X      ....XXXXXX.....XXXXXXX....... X         ",
"                        ....XXXXXX......XXXXXX....... X         ",
"                        .....XXXXX................... X         ",
"                        .......XXXX..................           ",
"                         .......XXX.................            ",
"                         ..............  ........               ",
"                         ............                           ",
"                          ...........    .                      ",
"                           ...........                          ",
"         .                  ............                        ",
"                            ............                        ",
"                          X  ...........                        ",
"                              ..........                        ",
"                                                                ",
"                                                                ",
"                                                              . ",
"                                                                ",
"                                                                ",
"                                                                ",
"                                                                ",
"                                                                "
};
