/* XPM */
static char *d7bad33db99c432dd23608984266873aIEvCv9xmfuDFSxkM[] = {
/* columns rows colors chars-per-pixel */
"64 64 6 1 ",
"  c black",
". c gray20",
"X c gray31",
"o c #696A6A",
"O c #FFFCB3",
"+ c white",
/* pixels */
"         +     ooooooooooooooooooooooooooooooooooo              ",
"              ooooooooooooooooooooooooooooooooooooo       O     ",
"             ooooooooooooooooooooooooooooooooooooooo            ",
"            ooooooooooooooooooooooooooooooooooooooooo           ",
"           oooooo                              ooooooo          ",
"          ooooooo                               ooooooo         ",
"         ooooooo                                 ooooooo        ",
"        ooooooo                                   ooooooo       ",
"       ooooooo                            +        ooooooo      ",
"      ooooooo   OOOOOOOO                 +++++      ooooooo     ",
"     ooooooo   OOOOOOOOOOOOOO             +          ooooooo    ",
"    ooooooo    OOOOOOOOOOOOOOO             OOOO       ooooooo   ",
"O  ooooooo     OOOOOO+++++++OOOOOOO        OOOOO       ooooooo  ",
"  ooooooo      OOOOOO+++++++++++OOOO       OOOOO        ooooooo ",
" ooooooo          OOOO++++++++++OOOOO      OOOOO         ooooooo",
"ooooooo            OOOO++++++++++OOOOO     OOOOOO         oooooo",
"oooooo               OOO+++++++++OOOOOOOOOOOOOOOO          ooooo",
"ooooo               OOOO+++++++++OOOOOOOOOOOOOOOO          ooooo",
"ooooo              OOOOO++++++++++OOOOOOOOO++OOOO          ooooo",
"ooooo             OOOOOO++++++++++++OOOOO++++OOOO          ooooo",
"ooooo            OOOOOOO+++++++++++++++++++++OOOO          ooooo",
"ooooo           OOOOOOOO+++++++++++++++++++++OOOO          ooooo",
"ooooo          OOOOOOOO++++++++++++++++++++++OOOO O        ooooo",
"ooooo         OOOOOOO++++++++++++++++++++++++OOO           ooooo",
"ooooo         OOOOO+++++++++++++++++++++++++OOOO    OOOO   ooooo",
"ooooo     O  OOOOO+++++++++++++++++++++++++OOOOOO   OOOO   ooooo",
"ooooo        OOOO+++++++++++++++++++++++++OOOOOOO  OOOOO   ooooo",
"ooooo        OOOO+++++++++++++++++++++++OOOOOOOOOOOOOOOO   ooooo",
"ooooo        OOOO++++++++++++++++++++++OOOOOOOOOOOOOOOOO   ooooo",
"ooooo       OOO+++++++++++++++++++++++++OOOOOO++OOOOOOOO   ooooo",
"ooooo       OOO+++++++++++++++++++++++++++++++++OOOOOOOO   ooooo",
"ooooo      OOOO++++++O++++++++++++++++++++++++++OOOOOOOO   ooooo",
"ooooo      OOOO+++++OO+++++++++++++++++++++++++OOOOOOOOO   ooooo",
"ooooo     OOOOO+++++OO++++++++++++++++++++++++OOOOOOOOOO   ooooo",
"ooooo    OOOOOO+++++OO++++++++++++++++++++++++OOOOOOOOO    ooooo",
"ooooo    OOOOOO+++OOOO+++++++++++++++++++++++OOOOOOOOO     ooooo",
"ooooo    OOOOOO+++OOOO+++++++O++++++++++++OOOOOOOOOO       ooooo",
"ooooo   OOOOOOO+++OOOO+++++++OO+++++++OOOOOOOOOOOOO   +    ooooo",
"ooooo   OOOOOOOOOOOOOO++++++++OOOOOOOOOOOOOOOOOOOO         ooooo",
"ooooo   OOOOOOOOOOOOOOO+++++++OOOOOOOOOOOOOOOOO            ooooo",
"ooooo   OOOOOOOOOOOOOOOO++++++OOOOOOOOOOOO                 ooooo",
"ooooo   OOOOOOOOOOOOOOOO++++++OOOOOOOOOO                   ooooo",
"ooooo   OOOOOOO   OOOOOOO++++++OOOOOOOOO                   ooooo",
"ooooo   OOOOOO      OOOOOOO++++OOOOOOOO                    ooooo",
"ooooo   OOOOO        OOOOOOO+++OOOOOOO                     ooooo",
"ooooo   OOOOO         OOOOOOOOOOOOOOO                      ooooo",
"ooooo   OOOOO         OOOOOOOOOOOOOOOO     +               ooooo",
"ooooo    OOOO           OOOOOOOOOOOOOOOOOOOO               ooooo",
"ooooo    OOOO           OOOOOOOOOOOOOOOOOOOO               ooooo",
"ooooo                    OOOOOOOOOOOOOOOOOOO               ooooo",
"ooooo                       OOOOOOOOOOOOOOOO               ooooo",
"ooooo                            OOOOOOOOOO                ooooo",
"ooooo    +                                                 ooooo",
"ooooo                                                      ooooo",
"ooooo                                               O      ooooo",
"ooooo                                                      ooooo",
"ooooo                                                      ooooo",
"ooooo                                                      ooooo",
"ooooo                                                      ooooo",
"o....                                                      ....o",
"o....XXXXXXXXXXXXXXXXXXXXXXXXXXXXXXXXXXXXXXXXXXXXXXXXXXXXXX....o",
"o....XXXXXXXXXXXXXXXXXXXXXXXXXXXXXXXXXXXXXXXXXXXXXXXXXXXXXX....o",
"o..............................................................o",
"o..............................................................o"
};
