/* XPM */
static char *_46b146f1b85464fbb22870da39478e0[] = {
/* columns rows colors chars-per-pixel */
"64 64 3 1 ",
"  c black",
". c #FFFCB3",
"X c white",
/* pixels */
"         X                                                      ",
"                                                          .     ",
"                                                                ",
"                                                                ",
"                                                                ",
"                                                                ",
"                                                                ",
"                                                                ",
"                                          X                     ",
"                ........                 XXXXX                  ",
"               ..............             X                     ",
"               ...............             ....                 ",
".              ......XXXXXXX.......        .....                ",
"               ......XXXXXXXXXXX....       .....                ",
"                  ....XXXXXXXXXX.....      .....                ",
"                   ....XXXXXXXXXX.....     ......               ",
"                     ...XXXXXXXXX................               ",
"                    ....XXXXXXXXX................               ",
"                   .....XXXXXXXXXX.........XX....               ",
"                  ......XXXXXXXXXXXX.....XXXX....               ",
"                 .......XXXXXXXXXXXXXXXXXXXXX....               ",
"                ........XXXXXXXXXXXXXXXXXXXXX....               ",
"               ........XXXXXXXXXXXXXXXXXXXXXX.... .             ",
"              .......XXXXXXXXXXXXXXXXXXXXXXXX...                ",
"              .....XXXXXXXXXXXXXXXXXXXXXXXXX....    ....        ",
"          .  .....XXXXXXXXXXXXXXXXXXXXXXXXX......   ....        ",
"             ....XXXXXXXXXXXXXXXXXXXXXXXXX.......  .....        ",
"             ....XXXXXXXXXXXXXXXXXXXXXXX................        ",
"             ....XXXXXXXXXXXXXXXXXXXXXX.................        ",
"            ...XXXXXXXXXXXXXXXXXXXXXXXXX......XX........        ",
"            ...XXXXXXXXXXXXXXXXXXXXXXXXXXXXXXXXX........        ",
"           ....XXXXXX.XXXXXXXXXXXXXXXXXXXXXXXXXX........        ",
"           ....XXXXX..XXXXXXXXXXXXXXXXXXXXXXXXX.........        ",
"          .....XXXXX..XXXXXXXXXXXXXXXXXXXXXXXX..........        ",
"         ......XXXXX..XXXXXXXXXXXXXXXXXXXXXXXX.........         ",
"         ......XXX....XXXXXXXXXXXXXXXXXXXXXXX.........          ",
"         ......XXX....XXXXXXX.XXXXXXXXXXXX..........            ",
"        .......XXX....XXXXXXX..XXXXXXX.............   X         ",
"        ..............XXXXXXXX....................              ",
"        ...............XXXXXXX.................                 ",
"        ................XXXXXX............                      ",
"        ................XXXXXX..........                        ",
"        .......   .......XXXXXX.........                        ",
"        ......      .......XXXX........                         ",
"        .....        .......XXX.......                          ",
"        .....         ...............                           ",
"        .....         ................     X                    ",
"         ....           ....................                    ",
"         ....           ....................                    ",
"                         ...................                    ",
"                            ................                    ",
"                                 ..........                     ",
"         X                                                      ",
"                                                                ",
"                                                    .           ",
"                                                                ",
"                                                                ",
"                                                                ",
"                                                                ",
"                                                                ",
"                                                                ",
"                                                                ",
"                                                                ",
"                                                                "
};
