/* XPM */
static char *Door1[] = {
/* columns rows colors chars-per-pixel */
"64 64 12 1 ",
"  c black",
". c #282828",
"X c gray20",
"o c #444444",
"O c gray31",
"+ c #696A6A",
"@ c #7D8593",
"# c #A4A389",
"$ c #FFFCB3",
"% c #A9B2C6",
"& c #CBDBFC",
"* c white",
/* pixels */
"         *     +++++++++++++++++++++++++++++++++++              ",
"              +++++++++++++++++++++++++++++++++++++       $     ",
"             +++++++++++++++++++++++++++++++++++++++            ",
"            +++++++++++++++++++++++++++++++++++++++++           ",
"           ++++++&&&&&&&&&&&&&&&&&&&&&&&&&&&&&&+++++++          ",
"          +++++++&&&&&&&&&&&&&&&&&&&&&&&&&&&&&&&+++++++         ",
"         +++++++&&&&&&&&&&&&&&&&&&&&&&&&&&&&&&&&&+++++++        ",
"        +++++++&&&&&&&&&&&&&&&&&&&&&&&&&&&&&&&&&&&+++++++       ",
"       +++++++&&&&&&&&&&&&&&&&&&&&&&&&&&&&&&&&&&&&&+++++++      ",
"      +++++++&&&&&&&&&&&&&&&&&&&&&&&&&&&&&&&&&&&&&&&+++++++     ",
"     +++++++&&&&&&&&&&&&&&&&&&&&&&&&&&&&&&&&&&&&&&&&&+++++++    ",
"    +++++++&&&&&&&&&&&&&&&&@@@@@@@@@@&&&&&&&&&&&&&&&&&+++++++   ",
"$  +++++++&&&&&&&&&&&&&&@@@.@@@.@@@.@@@@&&&&&&&&&&&&&&&+++++++  ",
"  +++++++&&&&&&&&&&&&&&@@@@@@@@@@@@@@@@@@&&&&&&&&&&&&&&&+++++++ ",
" +++++++&&&&&&&&&&&&&&@@@XXXXXXXXXXXXXX@@@&&&&&&&&&&&&&&&+++++++",
"+++++++&&&&&&&&&&&&&&&@@@XXXXXXXXXXXXXX@@@&&&&&&&&&&&&&&&&++++++",
"++++++&&&&&&&&&&&&&&&&@.@XXoXXXoX#XXXXX@.@&&&&&&&&&&&&&&&&&+++++",
"+++++&&&&&&&&&&&&&&&&&@@@XXXoXXXoXXXXXX@@@&&&&&&&&&&&&&&&&&+++++",
"+++++&&&&&&&&&&&&&&&&&@@@XXXXoXXXoXX#XX@@@&&&&&&&&&&&&&&&&&+++++",
"+++++&&&&&&&&&&&&&&&&&@@@XXXXXoXXXoX#XX@@@&&&&&&&&&&&&&&&&&+++++",
"+++++&&&&&&&&&&&&&&&&&@.@XXXXXXoXXXoXXX@.@&&&&&&&&&&&&&&&&&+++++",
"+++++&&&&&&&&&&&&&&&&&@@@XXoXXXXoXXXoXX@@@&&&&&&&&&&&&&&&&&+++++",
"+++++&&&&&&&&&&&&&&&&&@@@XXXoXXXXoXXXXX@@@&&&&&&&&&&&&&&&&&+++++",
"+++++&&&&&&&&&&&&&&&&&@@@XXXXoXXXXoXXXX@@@&&&&&&&&&&&&&&&&&+++++",
"+++++&&&&&&&&&&&&&&&&&@.@XX#XXoXXXXoXXX@.@&&&&&&&&&&&&&&&&&+++++",
"+++++&&&&&&&&&&&&&&&&&@@@XXXXXXoXXXXoXX@@@&&&&&&&&&&&&&&&&&+++++",
"+++++&&&&&&&&&&&&&&&&&@@@XXXXXXXXXXXXXX@@@&&&&&&&&&&&&&&&&&+++++",
"+++++&&&&&&&&&&&&&&&&&&@@@@@@@@@@@@@@@@@@&&&&&&&&&&&&&&&&&&+++++",
"+++++&&&&&&&&&&&&&&&&&&@@@@.@@@.@@@.@@@@@&&&&&&&&&&&&&&&&&&+++++",
"+++++&&&&&&&&&&&&&&&&&&&&@@@@@@@@@@@@@@&&&&&&&&&&&&&&&&&&&&+++++",
"+++++&&&&&&&&&&&&&&&&&&&&&&&@@@@@@@@&&&&&&&&&&&&&&&&&&&&&&&+++++",
"+++++&&&&&&&&&&&&&&&&&&&&&&&&&&&&&&&&&&&&&&&&&&&&&&&&&&&&&&+++++",
"+++++&&&&&&&&&&&&&&&&&&&&&&&&&&&&&&&&&&&&&&&&&&&&&&&&&&&&&&+++++",
"+++++&&&&&&&&&&&&&&&&&&&&&&&&&&&&&&&&&&&&&&&&&&&&&&&&&&&&&&+++++",
"+++++&&&&&&&&&&&&&&&&&&&&&&&&&&&&&&&&&&&&&&&&&&&&&&&&&&&&&&+++++",
"+++++&&&&&&&&&&&&&&&&&&&&&&&&&&&&&&&&&&&&&&&&&&&&&&&&&&&&&&+++++",
"+++++&&&&&&&&&&&&&&&&&&&&&&&&&&&&&&&&&&&&&&&&&&&&&&&&&&&&&&+++++",
"+++++&&&&&&&&&&&&&&&&&&&&&&&&&&&&&&&&&&&&&&&&&&&&&&&&&&&&&&+++++",
"+++++&&&&&&&&&&&&&&&&&&&&&&&&&&&&&&&&&&&&&&&&&&&&&&&&&&&&&&+++++",
"+++++&&%%%%%%%%%%%%%%%%%%%%%%%%%%%%%%%%%%%%%%%%%%%%%%%%%%&&+++++",
"+++++&&%%%%%%%%%%%%%%%%%%%%%%%%%%%%%%%%%%%%%%%%%%%%%%%%%%&&+++++",
"+++++&&&&&&&&&&&&&&&&&&&&&&&&&&&&&&&&&&&&&&&&&&&&&&&&&&&&&&+++++",
"+++++&&&&&&&&&&&&&&&&&&&&&&&&&&&&&&&&&&&&&&&&&&&&&&&&&&&&&&+++++",
"+++++&&%%%%%%%%%%%%%%%%%%%%%%%%%%%%%%%%%%%%%%%%%%%%%%%%%%&&+++++",
"+++++&&%%%%%%%%%%%%%%%%%%%%%%%%%%%%%%%%%%%%%%%%%%%%%%%%%%&&+++++",
"+++++&&&&&&&&&&&&&&&&&&&&&&&&&&&&&&&&&&&&&&&&&&&&&&&&&&&&&&+++++",
"+++++&&&&&&&&&&&&&&&&&&&&&&&&&&&&&&&&&&&&&&&&&&&&&&&&&&&&&&+++++",
"+++++&&%%%%%%%%%%%%%%%%%%%%%%%%%%%%%%%%%%%%%%%%%%%%%%%%%%&&+++++",
"+++++&&%%%%%%%%%%%%%%%%%%%%%%%%%%%%%%%%%%%%%%%%%%%%%%%%%%&&+++++",
"+++++&&&&&&&&&&&&&&&&&&&&&&&&&&&&&&&&&&&&&&&&&&&&&&&&&&&&&&+++++",
"+++++&&&&&&&&&&&&&&&&&&&&&&&&&&&&&&&&&&&&&&&&&&&&&&&&&&&&&&+++++",
"+++++&&%%%%%%%%%%%%%%%%%%%%%%%%%%%%%%%%%%%%%%%%%%%%%%%%%%&&+++++",
"+++++&&%%%%%%%%%%%%%%%%%%%%%%%%%%%%%%%%%%%%%%%%%%%%%%%%%%&&+++++",
"+++++&&&&&&&&&&&&&&&&&&&&&&&&&&&&&&&&&&&&&&&&&&&&&&&&&&&&&&+++++",
"+++++&&&&&&&&&&&&&&&&&&&&&&&&&&&&&&&&&&&&&&&&&&&&&&&&&&&&&&+++++",
"+++++&&%%%%%%%%%%%%%%%%%%%%%%%%%%%%%%%%%%%%%%%%%%%%%%%%%%&&+++++",
"+++++&&%%%%%%%%%%%%%%%%%%%%%%%%%%%%%%%%%%%%%%%%%%%%%%%%%%&&+++++",
"+++++&&&&&&&&&&&&&&&&&&&&&&&&&&&&&&&&&&&&&&&&&&&&&&&&&&&&&&+++++",
"+++++&&&&&&&&&&&&&&&&&&&&&&&&&&&&&&&&&&&&&&&&&&&&&&&&&&&&&&+++++",
"+XXXX&&&&&&&&&&&&&&&&&&&&&&&&&&&&&&&&&&&&&&&&&&&&&&&&&&&&&&XXXX+",
"+XXXXOOOOOOOOOOOOOOOOOOOOOOOOOOOOOOOOOOOOOOOOOOOOOOOOOOOOOOXXXX+",
"+XXXXOOOOOOOOOOOOOOOOOOOOOOOOOOOOOOOOOOOOOOOOOOOOOOOOOOOOOOXXXX+",
"+XXXXXXXXXXXXXXXXXXXXXXXXXXXXXXXXXXXXXXXXXXXXXXXXXXXXXXXXXXXXXX+",
"+XXXXXXXXXXXXXXXXXXXXXXXXXXXXXXXXXXXXXXXXXXXXXXXXXXXXXXXXXXXXXX+"
};
