/* XPM */
static char *_dfd8432a9ff494c9601243389c2fb1e[] = {
/* columns rows colors chars-per-pixel */
"64 64 5 1 ",
"  c black",
". c #44005B",
"X c #BB00FC",
"o c #FFFCB3",
"O c white",
/* pixels */
"                                                                ",
"                                                                ",
"                                                                ",
"                                                                ",
"                                                                ",
"                                                                ",
"                                                                ",
"                                                                ",
"                                                                ",
"           o                                                    ",
"                                                                ",
"                                                      O         ",
"                     XXXXXXXXXX                                 ",
"                    XXXXXXXXXXXXXXXX                            ",
"                    XXXXXXXXXXXXXXXXXXX                         ",
"                    XXXXXXXXXXXXXXXXXXXX           XXXX         ",
"                    XXXXXXXXXXXXXXXXXXXX           XXXX         ",
"                    O     XXXXXXXXXXXXXXXX         XXXXX        ",
"                           XXXXXXXXXXXXXXX         XXXXX        ",
"                          XXXXXXX...XXXXXXX        XXXXX        ",
"                         XXXXXXXX....XXXXXXX      XXXXXX        ",
"                        XXXXXXXXX......XXXXXXX   XXXXXXX        ",
"                        XXXXXXXXXX......XXXXXXXXXXXXXXXX        ",
"                      XXXXXXXXXXXX......XXXXXXXXXXXXXXXX        ",
"                 XXXXXXXXXXXXXXXXX.......XXXXXXXXXXXXXXX        ",
"              XXXXXXXXXXXXXXXXXXXX........XXXXXXXXXXXXXX        ",
"         O   XXXXXXXXXXXXX.......XX.......XXXX...XXXXXXX        ",
"            XXXXXXXXXX............X.......XXXX...XXXXXX         ",
"          XXXXXXXXX.......................XXXX...XXXXXX         ",
"         XXXXXXXXX........................XX.....XXXXXX         ",
"        XXXXXXXXXX........................XX.....XXXXX          ",
"        XXXXXXXXX.........................XX.....XXXX           ",
"        XXXXXXXX..........................X......XXXX           ",
"        XXXXXXXX.................................XXX            ",
"        XXXXXXXX..XXXXXX.........................XXX            ",
"        XXXXXXXXXXXXXXXXX......................XXXX             ",
"        XXXXXXXXXXXXXXXX.......................XXXX             ",
"        XXXXX  XXXXXXX.........................XXXX             ",
"        XXXX   XXXXXX.........................XXXXX  o          ",
"        XXXX    XXXX.........................XXXXX              ",
"                XXX........................XXXXXXX              ",
"             o XXXX......................XXXXXXXX               ",
"               XXXX.....................XXXXXXXX                ",
"               XXXX.....................XXXXXXX                 ",
"               XXXX....XXXXX............XXXXXX                  ",
"               XXXX..XXXXXXXXX..........XXXXX                   ",
"               XXXXXXXXXXXXXXXX.........XXXX                    ",
"               XXXXXXXXXXXXXXXX.........XXX                     ",
"               XXXXXX     XXXXX..........XXXX                   ",
"                XXXXX      XXXXX..........XXXX                  ",
"                XXXXX       XXXX...........XXXXXX               ",
"                XXXXX        XXXXXXX.......XXXXXX              o",
"                 XXXX             XXXXXXXXXXXXXXX               ",
"                     O             XXXXXXXXXXXXXX               ",
"                  OOOOO                 XXXXXXXX                ",
"                     O                                          ",
"                                                                ",
"                                                                ",
"                                                                ",
"                                                                ",
"                                                                ",
"                                                                ",
"     o                                                          ",
"                                                      O         "
};
