/* XPM */
static char *_9b93152a95549dca8c40ab356206009[] = {
/* columns rows colors chars-per-pixel */
"64 64 11 1 ",
"  c black",
". c #2C2C2C",
"X c #353535",
"o c #FF7E22",
"O c #FBF236",
"+ c #CE18FF",
"@ c #E174FF",
"# c gray54",
"$ c #B1B1B1",
"% c #FFFBAF",
"& c white",
/* pixels */
"                                                                ",
"                          ............                          ",
"                        ................                        ",
"                       ..................                       ",
"                     ......................                     ",
"                    ................O.......                    ",
"        &         ............................                  ",
"                 ..............................                 ",
"                ................................          O     ",
"               ........%.........................               ",
"              .........%..........................              ",
"             .........%%%....oooooo................             ",
"             .......%%&&%%oooooooooooo.............             ",
"             .........%%oooooooooooooooo...........             ",
"            ...........oooooooooooooooooo...........            ",
"            ...........oooooooooooooooooo...........            ",
"            ...........oooooooooooooooooo...........            ",
"            ...........oooooooooooooooooo...........            ",
"            ...........oooo&&&oooo&&&oooo...........            ",
"            ..........ooooo&&&oooo&&&ooooo..........            ",
"           ...........oooooo&&oooo&&oooooo...........           ",
"  &        ...........oooooo&&oooo&&oooooo...........           ",
"           ...........oooooo&&oooo&&oooooo...........           ",
"           ...........oooooooooooooooooooo...........           ",
"           ...........oooooooooooooooooooo...........           ",
"           .O.........ooooo&&&oooo&&&ooooo...........           ",
"           ...........oooo&&&&&oo&&&&&oooo...........           ",
"           ............ooo&&&&&&&&&&&&ooo............           ",
"           ............ooo&&o&&&&&&o&&ooo............           ",
"          ..............oooooooooooooooo..............          ",
"  ############################################################  ",
"  ############################################################  ",
"################################################################",
"################################################################",
"###XX###XX###XX###XX###XX###XX####XX###XX###XX###XX###XX###XX###",
"###XX###XX###XX###XX###XX###XX####XX###XX###XX###XX###XX###XX###",
"################################################################",
"XXXXXXXXXXXXXXXXXXXXXXXXXXXXXXXXXXXXXXXXXXXXXXXXXXXXXXXXXXXXXXXX",
"################################################################",
"  ############################################################  ",
"  ############################################################  ",
"    $$$$$$$$$$$$$$$$$$$$$$$$$$$$$$$$$$$$$$$$$$$$$$$$$$$$$$$$    ",
"            +++++@@@@@@@@@@@@@@@@@@@@@@@@@@@@@@+++++            ",
"          ++++++@@@@@@@@@@@@@@@@@@@@@@@@@@@@@@@@++++++          ",
"  &     ++++++@@@@@@@@@@@@@@@@@@@@@@@@@@@@@@@@@@@@++++++        ",
"      ++++++@@@@@@@@@@@@@@@@@@@@@@@@@@@@@@@@@@@@@@@@++++++ &    ",
"   +++++++@@@@@@@@@@@@@@@@@@@@@@@@@@@@@@@@@@@@@@@@@@@@+++++++   ",
" +++++++++@@@@@@@@@@@@@@@@@@@@@@@@@@@@@@@@@@@@@@@@@@@@+++++++++ ",
" +++++++++@@@+++++++@@@@@@@@@@@@@@@@@@@@@@@@+++++++@@@+++++++++ ",
" ++++++++++++++++++@@@@@@@@@@@@@@@@@@@@@@@@@@++++++++++++++++++ ",
"   ++++++++++++++++@@@@@@@@@@@@@@@@@@@@@@@@@@++++++++++++++++   ",
"         &      ++@@@@@@@@@@@@@@@@@@@@@@@@@@@@++                ",
"         &     +++@@@@@@+@@@@@@@@@@@@@@+@@@@@@+++               ",
"         &     ++@@@@@++@@@@@@@++@@@@@@@++@@@@@++               ",
"        &&&   ++@@@@@+++@@@@@++++++@@@@@+++@@@@@++              ",
"      &&&&&&& ++@@@@+++@@@@@+++  +++@@@@@+++@@@@++              ",
"        &&&   +++++++++@@@++++    ++++@@@+++++++++              ",
"         &   ++++++++++++++++      ++++++++++++++++             ",
"         &   ++++++++++++++++      ++++++++++++++++             ",
"            ++++++++ +++++++        +++++++ ++++++++            ",
"            ++++++  +++++++          +++++++  ++++++            ",
"           +++++    ++++++            ++++++    +++++ O         ",
"           ++++     +++++              +++++     ++++           ",
"                    ++++                ++++                    "
};
