/* XPM */
static char *_af7321521fd42d3d012fa48c0952473V39G9aHiqnn0vXBp[] = {
/* columns rows colors chars-per-pixel */
"64 64 6 1 ",
"  c black",
". c #C80000",
"X c #FBF236",
"o c #FFF981",
"O c #FFF3AD",
"+ c white",
/* pixels */
"                                                                ",
"                                                                ",
"                                                                ",
"                                                                ",
"                                                                ",
"                                    X                           ",
"        +                                                       ",
"                                                                ",
"                                                          X     ",
"                                                                ",
"                                                                ",
"                                                                ",
"                         OOOOOOOOOOOOOO                         ",
"                      OOOOOOOOOOOOOOOOOOOO                      ",
"                    OOOOOOOOOOOOOOOOOOOOOOOO                    ",
"                   OOOOOOOOOOOOOOOOOOOOOOOOOO                   ",
"                  OOOOOOOOOO++OOOO++OOOOOOOOOO                  ",
"                 OOOOOOOO+++++OOOO+++++OOOOOOOO                 ",
"                 OOOOOOO++++++OOOO++++++OOOOOOO    +            ",
"                OOOOOOO+++++++OOOO+++++++OOOOOOO                ",
"                OOOOOO++++++++OOOO++++++++OOOOOO                ",
"  +            OOOOOO+++++++++OOOO+++++++++OOOOOO               ",
"               OOOOOO++++..+++OOOO+++++++++OOOOOO               ",
"               OOOOO+++++..+++OOOO++++++++++OOOOO               ",
"              OOOOOO++++++++++OOOO++++++++++OOOOOO              ",
"            X OOOOO+++++++++++OOOO+++++++++++OOOOO              ",
"              OOOOO+++++++++++OOOO+++++++++++OOOOO              ",
"              OOOOO+++++++++++OOOO++..+++++++OOOOO              ",
"              OOOO++++++++++++OOOO++..++++++++OOOO              ",
"              OOOO++++++++++++OOOO++++++++++++OOOO              ",
"              OOOO++++++++++++OOOO++++++++++++OOOO              ",
"              OOOOOO+++++++++OOOOOO+++++++++OOOOOO              ",
"              OOOOOOOO++++++OOOOOOOO++++++OOOOOOOO              ",
"              OOOOOOOOOOOOOOOOOOOOOOOOOOOOOOOOOOOO              ",
"              OOOOOOOOOOOOOOOOOOOOOOOOOOOOOOOOOOOOo             ",
"              OOOOOOOOOOOOOOOOOOOOOOOOO+++OOOOOOOOoooo          ",
"              OOOOOOOOO++++OOOO+++OOOO+++++OOOOOOOoo            ",
"              OOOO+++OO+++++OO+++++OO++++++++OOOOOo             ",
"              OOOO+++++++++++++++++++++++++++OOOOO              ",
"              OOOO+++++++++++++++++++++++++++OOOOO              ",
"              OOOO+++++++++++++++++++++OOOOOOOOOOO              ",
"              OOOOO++++++OO++++OOO++++OOOOOOOOOOOO              ",
"              OOOOOO++++OOOOOOOOOOOOOOOOOOOOOOOOOO              ",
"               OOOOOO+++OOOOOOOOOOOOOOOOOOOOOOOOO               ",
"  +            OOOOOOOOOOOOOOOOOOOOOOOOOOOOOOOOOO               ",
"               OOOOOOOOOOOOOOOOOOOOOOOOOOOOOOOOOO          +    ",
"               OOOOOOOOO     OOOOOO     OOOOOOOOO               ",
"               OOOOOOO                    OOOOOOO               ",
"               OOOOOOO                    OOOOOOO               ",
"               OOOOOO                      OOOOOO               ",
"         +    OOOOOOO                      OOOOOOO              ",
"         +    OOOOOOO                      OOOOOOO              ",
"         +    OOOOOOO            X         OOOOOOO              ",
"         +    OOOOOOO                      OOOOOOO              ",
"        +++    OOOOOO                      OOOOOO               ",
"      +++++++  OOOOOO                      OOOOOO               ",
"        +++    OOOOOO                      OOOOOO               ",
"         +     OOOOOO                      OOOOOO               ",
"         +     OOOOOO                      OOOOOO               ",
"               OOOOOO                      OOOOOO               ",
"               OOOOOO                      OOOOOO               ",
"               OOOOOO   +                  OOOOOO     X         ",
"               OOOOO                        OOOOO               ",
"                OOOO                        OOOO                "
};
