/* XPM */
static char *c0c8e4483a43419ae9227bcab4951af1ozTx9ZdbExvJ7cs8[] = {
/* columns rows colors chars-per-pixel */
"64 64 8 1 ",
"  c black",
". c #FBF236",
"X c #B55697",
"o c #E970C3",
"O c #FF74D3",
"+ c #FFFBAF",
"@ c #FF8BDA",
"# c white",
/* pixels */
"                                                                ",
"                                                                ",
"                                                                ",
"                                                                ",
"                                                                ",
"                                    .                           ",
"        #                                                       ",
"                                                                ",
"                                                          .     ",
"                       +                                        ",
"                       +                                        ",
"                      +++                                       ",
"                    ++##+++#                                    ",
"                      +++                                       ",
"                       +                                        ",
"                       +                                        ",
"                                                                ",
"                                                                ",
"                                                   #            ",
"                                                                ",
"                                                                ",
"  #                                                             ",
"                                                                ",
"                                                                ",
"                               XX       .                       ",
"            .       XXX    XXXX@@XXXX    XXX                    ",
"                  XX@@@XX X@@@@@@@@@@X XX@@@XX                  ",
"                  X@@@@@@X@@@@@@@@@@@@X@@@@@@X                  ",
"       XXXXXX    X@@@@@@@@@@@@@@@@@@@@@@@@@@@@X    XXXXXX       ",
"       X@@@@@XXX X@@@@@@@@@@@@@@@@@@@@@@@@@@@@X XXX@@@@@X       ",
"      X@@@@@@@@@X@@@@@@@@@@@@@@@@@@@@@@@@@@@@@@X@@@@@@@@@X      ",
"     X@@@@@@@@@@@@@@@@@######@@@@@@######@@@@@@@@@@@@@@@@@X     ",
"      X@@@@@@@@@@@@@@##########@@##########@@@@@@@@@@@@@@X      ",
"      X@@@@@@@@@@@@@@##########@@##########@@@@@@@@@@@@@@X      ",
"      X@@@@@@@@@@@@@@###@@@@###@@###@@@@###@@@@@@@@@@@@@@X      ",
"      X@@@@@@@@@@@@@@@@@@@@@@@@@@@@@@@@@@@@@@@@@@@@@@@@@@X      ",
"       X@@@@@@@@@@@@@@@@@@@@@@@@@@@@@@@@@@@@@@@@@@@@@@@@X       ",
"    XXX@@@@@@@@@@@@@@@@@@@@@@@@@@@@@@@@@@@@@@@@@@@@@@@@@@XXX    ",
"   X@@@@@@@@@@@@@@@@@@@@@@@@@@@@@@@@@@@@@@@@@@@@@@@@@@@@@@@@X   ",
"  X@@@@@@@@@OOOOO@@@@@@@@@@@@@@@@@@@@@@@@@@@@@@OOOOO@@@@@@@@@X  ",
"  X@@@@@@@@@OOOOO@@@@@@@###@@@@@@@@@@###@@@@@@@OOOOO@@@@@@@@@X  ",
"  X@@@@@@@@@OOOOO@@@@@@@####@@@@@@@@####@@@@@@@OOOOO@@@@@@@@@X  ",
"   X@@@@@@@@@ooo@@@@@@@@#######@@#######@@@@@@@@ooo@@@@@@@@@X   ",
"   X@@@@@@@@@@@@@@@@@@@@################@@@@@@@@@@@@@@@@@@@@X   ",
"  #X@@@@@@@@@@@@@@@@@@@@@@############@@@@@@@@@@@@@@@@@@@@@@X   ",
"    XXXX@@@@@@@@@@@@@@@@@@@@########@@@@@@@@@@@@@@@@@@@@XXXX    ",
"        XX@@@@@@@XXX@@@@@@@@@@@@@@@@@@@@@@@@XXX@@@@@@@XX        ",
"          XXXXXXX   XXXX@@@@@@@@@@@@@@@@XXXX   XXXXXXX          ",
"                        X@@@@@@@@@@@@@@X                        ",
"                         XXXXXXXXXXXXXX                         ",
"         #                                                      ",
"         #                                                      ",
"         #                       .                              ",
"         #                                 #                    ",
"        ###                                                     ",
"      #######                                                   ",
"        ###                                                     ",
"         #                                                      ",
"         #                                                      ",
"                                                                ",
"                                                                ",
"                        #                             .         ",
"                                                                ",
"                                                                "
};
