/* XPM */
static char *_54c226cd0f14a79b76ead3880c32090[] = {
/* columns rows colors chars-per-pixel */
"64 64 9 1 ",
"  c black",
". c #FBF236",
"X c #B55697",
"o c #E86DC1",
"O c #E970C3",
"+ c #FF74D3",
"@ c #FFFBAF",
"# c #FF8BDA",
"$ c white",
/* pixels */
"                                                                ",
"                                                                ",
"                                                                ",
"                                                                ",
"                                                                ",
"                                    .                           ",
"        $                                                       ",
"                                                                ",
"                                                          .     ",
"                       @                                        ",
"                       @                                        ",
"                      @@@                                       ",
"                    @@$$@@@$                                    ",
"                      @@@                                       ",
"                       @                                        ",
"                       @                                        ",
"                                                                ",
"                                                                ",
"                                                   $            ",
"                                                                ",
"                                                                ",
"  $                                                             ",
"                                                                ",
"                                                                ",
"                        XXXXXXXXX       .    XXXXXXXX           ",
"            .          X#########XXXX    XXXX########XXXXX      ",
"                      X##############X XX#################X     ",
"                   XXX################X####################X    ",
"                  X######oo##################ooo############X   ",
"                 X######oo##################oo#oo############X  ",
"                 X#####oo#####################################X ",
"                 X####oo#################################$$$$$X ",
"                X#######################################$$$$$$$X",
"               X########################################$$###$$X",
"              X################################################X",
"              X################################################X",
"              X#######################ooo#############+++++####X",
"               X######################################+++++###X ",
"               X######################################+++++###X ",
"               X#######################################OOO###X  ",
"               X#######o#####################################X  ",
"               X#######oooo##################################X  ",
"                X#################o####oo################$##X   ",
"                 X################oooooo#################$$$X   ",
"  $              X##########################################X   ",
"                 X######################################XXXX    ",
"                 X##########################XXX#######XX        ",
"                  X######XX#############XXXX   XXXXXXX          ",
"                   X####X  X###########X                        ",
"                    XXXX    XXXXXXXXXXX                         ",
"         $                                                      ",
"         $                                                      ",
"         $                       .                              ",
"         $                                 $                    ",
"        $$$                                                     ",
"      $$$$$$$                                                   ",
"        $$$                                                     ",
"         $                                                      ",
"         $                                                      ",
"                                                                ",
"                                                                ",
"                        $                             .         ",
"                                                                ",
"                                                                "
};
