/* XPM */
static char *e9300f9a0720460a9ce2e21e91312e24[] = {
/* columns rows colors chars-per-pixel */
"64 64 9 1 ",
"  c black",
". c #FBF236",
"X c #B55697",
"o c #E86DC1",
"O c #E970C3",
"+ c #FF74D3",
"@ c #FFFBAF",
"# c #FF8BDA",
"$ c white",
/* pixels */
"                                                                ",
"                                                                ",
"                                                                ",
"                                                                ",
"                                                                ",
"                                    .                           ",
"        $                                                       ",
"                                                                ",
"                                                          .     ",
"                       @                                        ",
"                       @                                        ",
"                      @@@                                       ",
"                    @@$$@@@$                                    ",
"                      @@@                                       ",
"                       @                                        ",
"                       @                                        ",
"                                                                ",
"                                                                ",
"                                                   $            ",
"                                                                ",
"                                                                ",
"  $                                                             ",
"                                                                ",
"                                                                ",
"           XXXXXXXXX           XXXXXXXXX.                       ",
"      XXXXX########XXXX    XXXX#########X                       ",
"     X#################XX X##############X                      ",
"    X####################X################XXX                   ",
"   X############ooo##################oo######X                  ",
"  X############oo#oo##################oo######X                 ",
" X#####################################oo#####X                 ",
"X#$$$$$#################################oo####X                 ",
"X$$$$$$$#######################################X                ",
"X$$###$$########################################X               ",
"X################################################X              ",
"X################################################X              ",
"X####+++++#############ooo#######################X              ",
" X###+++++######################################X               ",
" X###+++++######################################X               ",
"  X###OOO#######################################X               ",
"  X#####################################o#######X               ",
"  X##################################oooo#######X               ",
"   X##$################oo####o#################X                ",
"   X$$$#################oooooo################X                 ",
"  $X##########################################X                 ",
"    XXXX######################################X                 ",
"        XX#######XXX##########################X                 ",
"          XXXXXXX   XXXX#############XX######X                  ",
"                        X###########X  X####X                   ",
"                         XXXXXXXXXXX    XXXX                    ",
"         $                                                      ",
"         $                                                      ",
"         $                       .                              ",
"         $                                 $                    ",
"        $$$                                                     ",
"      $$$$$$$                                                   ",
"        $$$                                                     ",
"         $                                                      ",
"         $                                                      ",
"                                                                ",
"                                                                ",
"                        $                             .         ",
"                                                                ",
"                                                                "
};
