/* XPM */
static char *Wall[] = {
/* columns rows colors chars-per-pixel */
"64 64 12 1 ",
"  c #444444",
". c #484848",
"X c #4C4C4C",
"o c gray31",
"O c #505050",
"+ c #535353",
"@ c gray33",
"# c gray34",
"$ c #585858",
"% c gray36",
"& c #5D5D5D",
"* c #696A6A",
/* pixels */
"****************************************************************",
"****************************************************************",
"**                                                            **",
"**                                                            **",
"**                                                            **",
"**             . ...........XXXXXXOXOXXOXOOOOOOOO@@OO@@@$@@   **",
"**       ..  ........XX.XX.XX.XXXXXXXOOOOOOO@OO@@O@@@@@@@@@   **",
"**          . . ........X.XXXXXXXOOXOXOOOOO@OOO@O@@@@@@@@$$   **",
"**     . .. . .....X...X.XXXXXXOXOXOOXOOOOOOO@OOO@@@@@@@$@$   **",
"**          .........XX.XX.XXXXXOXXOOOOOOOO@O@@@@@@@@$@$@$@   **",
"**      .. .. ......X.XXXXXXXXXXOXOOOOOOOOO@@OO@@@@@@@$@$$$   **",
"**     .. ......X..X.XX..XXXOXOXXOXOOOOO@O@OO@@@@@@@$@@@$@$   **",
"**    . . ......X.X..XXXXXXXOXOOOOOOOO@OO@@O@@@@@@@@@$@$$$$   **",
"**   . ............XXX.XXXOXXXXOOOOOOOOO@OO@O@@@@@$@$@$$@$$   **",
"**    .  ......X.X.XXXXXXXXXXOOXXOOOOOOOOO@@@@@@@@@$@$$$$$$   **",
"**    .......X..X.XX.XXXOXXOXOOOOOOO@O@@@@@O@@@@@@$@$@$$$$$   **",
"**   .........X.XXXXXXXXXOXOOOOOOOOOOO@O@@@@@@@@$@$@$$$$$$$   **",
"**   . ....X.X.XX.XXXXXXXXOXOXOOOO@O@@O@@@@@@@$@@$$$$$$$$$$   **",
"**   .......X.X.X.XXXOXXXOXOOOOOOOO@OOO@O@@@@$@$$@$@$$$$$$%   **",
"**   ....X.X.XXXXXXXXXXOOXOOOOOOOO@O@@@@@@@@@@$@@$$$$$$%%$%   **",
"**   .....X..XXXXXXOXXOXOOXOOOOO@@O@@O@@@@@@@$$@$$$$$$$$$%$   **",
"**   ....X.XX.XXXXXXXOXOXOOOOO@O@OO@@@@@@@$@@$@$@$$$$%$%%$%   **",
"**   .X.X..XXXXXXXXXOXOOOOOOOOO@@O@@@@@@@@@$$@$$$$$$$$%$$%%   **",
"**   ..X.XX.XXXXOXXOXOXOOOOOO@O@O@O@@@@@$@$@@$@$$$$$$%$%%%%   **",
"**   .X.X.XXXXXXXXOXXOOXOOO@O@OO@@@@@@@@@$$@$$$$$$$$$%$%%$%   **",
"**   ..XXXXXXXXOXOXOOOOOOOOOO@@@@@@@@@$@@$@$$$$$$$%$%$%%%%%   **",
"**   X.XX.XXXXXXXOOOOXOOOOO@@OO@O@@@@@@$$@$$@$$$$$$%$%%$%%%   **",
"**   .XXXXXXXOXOOXOXOOOO@OO@O@@@@@@@$@$@@$@$$$$$$%%$%%%%%%%   **",
"**   X.XXXXXXOOXXOOXOOO@O@@O@@@@@@$@@$@$$$@$$$$$$$%%%%%%%%*   **",
"**   XXXXXXOXXXXOOOOOOOO@OO@O@@@@@@@$@@$$$$$$%$$%%%$%%%%%%$   **",
"**   XXXXXXXOOXOOOOOO@OOOO@@@@@@@@@$$@$$$$$$$$$%$%%%%%%%%%%   **",
"**   XXXXXOXOXOOXOOOOOO@@@@O@@@@$@@$@$@$$$$$%$%$%%$%%%%%%%%   **",
"**   XXooXXOXoOOOOO+OO+O++@@@@@@@$$@$$$$$$%$%$%%$%%%%&&&&&&   **",
"**   XXXXXOXOoOOOOOOO@O++@@@@@#@$@@@$$$$$$$$$%$%%%%%&&&&&&&   **",
"**   XoXOXXOOoOOOO+O@++++@@@@#@#@@$$$$$$$$$%%%%%%%%%&&&&&&&   **",
"**   oXXXOoooOOOO+OO@O++@@@#@@$@$$$$$$$$%$$$$%$%%%%%&&&&&&&   **",
"**   XOOOoooOOOOOO+OO@@@@@@@@$##$$$$$$$$$$%%%%%%%%&&&&&&&&&   **",
"**   XoXOooOOOO+++O@+@@@@@#@@$@$$@$$$$%$%$$%%%%%&&&&&&&&&&&   **",
"**   OXoooOOOO+OO+@@@@@@@@@$#@##@$$$$$$%$%%%%%%&&&&&&&&&&&&   **",
"**   XOooOOO+OOO@O++@@@@#@$@@###$$$%$$%$%$%$%%&&&&&&&&&&&&&   **",
"**   OooOOOO+OO@O@++@@@@@$##$#$$$$$$$%$$%%%%%&&&&&&&&&&&&&&   **",
"**   OoOOO+OO@+O@@+@@@#@@$@$##$$$$%$%$%%%$%%&&&&&&&&&&&&&&&   **",
"**   oOOOOOO+O@+++@@@@@$#@###$$$$$$%$%%$%%%%&&&&&&&&&&&&&&&   **",
"**   OOOO+O@O@@++@@@#@$@@###$$$$$$%$$%%%%%%%&&&&&&&&&&&&&&&   **",
"**   OOO+O@OO+@@@@@@@$@$###$$$$$%$$%%%%%%%%%%%&&&&&&&&&&&&&   **",
"**   OOOOOO@@++@@@#@$@@$#$$$$%$$$%$%%$%%%%%%&&&&&&&&&&&&&&&   **",
"**   OO+O@O+@+@@@@@$#@$$$$$$$$$%%%%%%%%%%%%%&&&&&&&&&&&&&&&   **",
"**   OO+@O@++@@@#@@$@###$$$$%$%$$%$%%%%%%%*$&&&&&&&&&&&&&&&   **",
"**   O@@O@++@@@@@@$@$$$$$$$$$%$$%%%%%%&&&&&&&&&&&&&&&&&&&&&   **",
"**   O+O@@+@@@@@@$#$##$$$$%$%$%%%%%%%&&&&&&&&&&&&&&&&&&&&&&   **",
"**   @O+++@@@@@##@$$#$$$$$$%$%%$$%%%&&&&&&&&&&&&&&&&&&&&&&&   **",
"**   O@++@@@#@@#@#$$$$$$$$%$$%%%%%%&&&&&&&&&&&&&&&&&&&&&&&&   **",
"**   @++@@@#@@$@@$$$$$$$%$$%%%%%%%%&&&&&&&&&&&&&&&&&&&&&&&&   **",
"**   @@@@@@@@$@$$$$$$$%$$%$%%$%%%%&&&&&&&&&&&&&&&&&&&&&&&&&   **",
"**   @@@@@#@@#$$$$$$$$$%%%%%%%%%&&&&&&&&&&&&&&&&&&&&&&&&&&&   **",
"**   @@@@#@@$@##$$$$$%$%$%$%%%%%&&&&&&&&&&&&&&&&&&&&&&&&&&&   **",
"**   @@@@#@$@$#$$$%$%$%$%%%%%%&&&&&&&&&&&&&&&&&&&&&&&&&&&&&   **",
"**   @#@@##@$$#$$$$$$%$%%%%%%&&&&&&&&&&&&&&&&&&&&&&&&&&&&&&   **",
"**   @@@#@$$##$$$$$%%$%%$%%%&&&&&&&&&&&&&&&&&&&&&&&&&&&&&&&   **",
"**                                                            **",
"**                                                            **",
"**                                                            **",
"****************************************************************",
"****************************************************************"
};
